<!-- icon666.com - MILLIONS vector ICONS FREE --><svg viewBox="0 0 511.99996 511" xmlns="http://www.w3.org/2000/svg"><path d="m228.734375 186.566406c-91.300781 178.257813-85.539063 167.496094-87.066406 169.71875-.910157 1.332032-1.921875 2.519532-3.027344 3.570313-10.324219 9.882812-28.375 7.839843-35.511719-6.101563l-85.570312-167.1875c-52.011719-86.84375 18.453125-197.476562 120.566406-185.117187 1.175781.144531 2.363281.300781 3.550781.476562 84.777344 12.433594 132.339844 109.054688 87.058594 184.640625zm0 0" fill="#f44545"></path><path d="m228.734375 186.566406c-91.300781 178.257813-85.539063 167.496094-87.066406 169.71875-.910157 1.332032-1.921875 2.519532-3.027344 3.570313-1.765625-1.683594-3.3125-3.714844-4.53125-6.101563l-85.574219-167.1875c-46.558594-77.734375 5.019532-174.53125 89.589844-185.117187 1.175781.144531 2.363281.300781 3.550781.476562 84.777344 12.433594 132.339844 109.054688 87.058594 184.640625zm0 0" fill="#fb5858"></path><path d="m181.339844 174.753906c-11.667969 13.132813-26.796875 21.394532-42.792969 24.605469-23.160156 4.667969-48.167969-1.21875-67.191406-18.121094-32.164063-28.582031-35.066407-77.816406-6.484375-109.984375 19.105468-21.507812 47.460937-29.933594 73.769531-24.605468 13.03125 2.632812 25.558594 8.640624 36.214844 18.113281 32.164062 28.582031 35.066406 77.824219 6.484375 109.992187zm0 0" fill="#af2727"></path><path d="m181.339844 174.753906c-11.667969 13.132813-26.796875 21.394532-42.792969 24.605469-13.03125-2.644531-25.554687-8.652344-36.210937-18.121094-32.167969-28.582031-35.070313-77.816406-6.484376-109.984375 11.667969-13.144531 26.792969-21.394531 42.789063-24.605468 13.03125 2.632812 25.558594 8.640624 36.214844 18.113281 32.164062 28.582031 35.066406 77.824219 6.484375 109.992187zm0 0" fill="#d63030"></path><path d="m502.617188 502.957031c-12.46875 12.40625-32.820313 12.351563-45.222657-.113281l-140.164062-140.878906c-12.40625-12.46875-12.351563-32.816406.113281-45.222656 12.46875-12.402344 32.820312-12.351563 45.222656.117187l140.164063 140.875c12.402343 12.46875 12.351562 32.816406-.113281 45.222656zm0 0" fill="#19305c"></path><path d="m422.691406 356.386719c-16.464844 36.394531-49 60.46875-85.425781 67.609375-23.359375 4.585937-48.316406 2.203125-71.660156-8.355469-59.753907-27.003906-86.277344-97.332031-59.269531-157.070313 23.148437-51.21875 78.132812-78.027343 130.992187-67.625 8.8125 1.734376 17.558594 4.496094 26.097656 8.355469 59.734375 27.007813 86.273438 97.347657 59.265625 157.085938zm0 0" fill="#d2d2d7"></path><path d="m422.691406 356.386719c-16.464844 36.394531-49 60.46875-85.425781 67.609375-8.808594-1.730469-17.558594-4.496094-26.09375-8.355469-59.753906-27.003906-86.273437-97.332031-59.269531-157.070313 16.464844-36.410156 49.003906-60.484374 85.425781-67.625 8.808594 1.734376 17.558594 4.496094 26.09375 8.355469 59.738281 27.007813 86.277344 97.347657 59.269531 157.085938zm0 0" fill="#ebebf0"></path><path d="m430.824219 189.84375c-64.960938-64.238281-169.707031-63.660156-233.945313 1.3125-64.238281 64.960938-63.660156 169.707031 1.3125 233.945312 64.960938 64.246094 169.707032 63.660157 233.945313-1.300781 64.25-64.972656 63.660156-169.710937-1.3125-233.957031zm-8.136719 166.546875c-16.457031 36.390625-48.996094 60.46875-85.425781 67.605469-23.355469 4.585937-48.316407 2.199218-71.664063-8.355469-59.746094-27-86.273437-97.332031-59.257812-157.066406 23.140625-51.21875 78.125-78.035157 130.984375-67.625 8.816406 1.734375 17.5625 4.492187 26.09375 8.351562 59.746093 27.003907 86.285156 97.34375 59.269531 157.089844zm0 0" fill="#4172cc"></path></svg>